<?xml version="1.0" encoding="utf-8"?>
<svg version="1.1" xmlns="http://www.w3.org/2000/svg" 
xmlns:xlink="http://www.w3.org/1999/xlink" x="0px" y="0px"
               viewBox="0 0 625.4 625.4" style="enable-background:new 0 0 
625.4 625.4;" xml:space="preserve">
<style type="text/css">
	.st0{fill:#010202;}
</style>
<path class="st0" 
d="M560.5,0H64.9C29.1,0,0,29.1,0,64.9v495.5c0,35.9,29.1,64.9,64.9,64.9h495.5c35.9,0,64.9-29.1,64.9-64.9V64.9
	C625.4,29.1,596.3,0,560.5,0z 
M471.5,443.7c-23.6,22.9-51.3,39.3-84,46.8c-17.8,4.1-35.6,6.8-48.8,6c-55.9,0.8-101.2-14.4-139-49
	
c-25.5-23.3-42.3-51.8-51-85.6c-5.8-22.5-7.3-45.2-5.4-67.8c2.6-30.3,11.9-58.7,29.4-84.1c28.4-41.2,67.7-66.7,116.2-76.3
	
c66-13,126.6-0.5,178.3,44.8c18.3,16,21.2,28.8,1.8,47.4c-10.3,9.9-20.2,20.2-30.4,30.3c-15.4,15.3-24.1,16.2-41.2,2.6
	
c-12.7-10.1-26.4-17.3-42.1-21c-36.7-8.6-76.5,12.5-87,52c-5.9,22-4.4,43.2,6.4,63.2c12.7,23.4,32.2,36,59.5,37.3
	
c24.6,1.1,45-7.1,63.3-22.9c15.2-13.1,24.1-12.8,38.7,0.9c12.7,11.9,25.1,24.2,36.8,37.1C487,420.5,485.5,430.2,471.5,443.7z"/>
</svg>
